<?xml version="1.0" encoding="utf-8"?>
<!-- Generator: Adobe Illustrator 27.0.0, SVG Export Plug-In . SVG Version: 6.00 Build 0)  -->
<svg version="1.1" id="Layer_1" xmlns="http://www.w3.org/2000/svg" xmlns:xlink="http://www.w3.org/1999/xlink" x="0px" y="0px"
	 viewBox="0 0 64 64" style="enable-background:new 0 0 64 64;" xml:space="preserve">

<path class="st0" d="M23.7,25.5c-1.4,0-2.8,1.4-2.8,3.3c0,0.5,0,0.5,0,0.9c0.5,1.9,0.5,1.9,0.5,1.9c-1.8,0.9-1.8,0.9-1.8,0.9
	c-1.9,0.9-3.3,2.8-3.3,5.1c0,3.2,2.3,5.6,5.6,5.6c20,0,20,0,20,0c3.7,0,7-3.3,7-7c0-2.8-1.4-5.6-4.2-6.5c-0.9-0.5-0.9-0.5-0.9-0.5
	c-0.5-0.9-0.5-0.9-0.5-0.9c-0.9-3.7-4.2-6-7.4-6c-2.8,0-5.1,1.4-6.5,3.7c-1.4,1.9-1.4,1.9-1.4,1.9c-2.3-1.4-2.3-1.4-2.3-1.4
	C25.6,25.9,24.7,25.5,23.7,25.5z M41.8,48.2c-20,0-20,0-20,0c-2.8,0-5.6-1.4-7.4-3.3c-1.8-1.9-2.8-4.6-2.8-7.4
	c0-3.3,1.9-6.5,4.6-8.8c0-4.2,3.3-7.9,7.4-7.9c0.9,0,2.3,0,3.3,0.5c2.3-2.3,5.6-3.7,8.8-3.7c2.8,0,5.6,0.9,7.4,2.8
	c1.9,1.4,3.3,3.3,4.2,5.1c3.7,2.3,6,6,6,10.7c0,3.2-0.9,6-3.3,8.3C47.9,46.8,45.1,48.2,41.8,48.2z"/>
</svg>
