<?xml version="1.0" encoding="utf-8"?>
<svg version="1.1" id="Layer_1" xmlns="http://www.w3.org/2000/svg" xmlns:xlink="http://www.w3.org/1999/xlink" x="0px" y="0px"
	 viewBox="0 0 64 64" style="enable-background:new 0 0 64 64;" xml:space="preserve">
<path class="st0" d="M22,18.1c0.9-0.5,1.4-0.5,1.8-0.9C21.5,13,21.5,13,21.5,13c-3.2,1.9-3.2,1.9-3.2,1.9c2.3,4.2,2.3,4.2,2.3,4.2
	C21,19,21.5,18.6,22,18.1z"/>
<path class="st0" d="M38.3,24c4.6-2.8,4.6-2.8,4.6-2.8C41,18,41,18,41,18c-4.6,2.8-4.6,2.8-4.6,2.8c0.5,0.5,0.9,0.9,0.9,1.4
	C37.8,22.6,37.8,23.6,38.3,24z"/>
<path class="st0" d="M17,25c0.4-0.9,0.4-1.4,0.9-1.8c-5-1.4-5-1.4-5-1.4C12,25.4,12,25.4,12,25.4c4.5,1.4,4.5,1.4,4.5,1.4
	C17,25.9,17,25.4,17,25z"/>
<path class="st0" d="M32.2,17.6c1.3-4.5,1.3-4.5,1.3-4.5c-3.1-1.4-3.1-1.4-3.1-1.4c-1.3,5-1.3,5-1.3,5c0.4,0,0.9,0.4,1.8,0.4
	C31.3,17.1,31.7,17.6,32.2,17.6z"/>
<path class="st0" d="M17.5,31.6c-4.6,2.7-4.6,2.7-4.6,2.7c1.8,3.2,1.8,3.2,1.8,3.2c4.6-2.7,4.6-2.7,4.6-2.7
	c-0.5-0.5-0.9-0.9-1.4-1.4C18,33,17.5,32.5,17.5,31.6z"/>
<path class="st0" d="M43.8,49.1c-15.7,0-15.7,0-15.7,0c-2.3,0-4.1-1.9-4.1-4.2c0-1.4,0.9-3.2,2.3-3.7c1.8-0.9,1.8-0.9,1.8-0.9
	c-0.5-1.9-0.5-1.9-0.5-1.9V38c0-1.4,0.9-2.3,1.8-2.3c0.5,0,0.9,0.5,1.4,0.5c1.8,1.8,1.8,1.8,1.8,1.8c1.4-2.3,1.4-2.3,1.4-2.3
	c1.4-1.4,2.8-2.3,5.1-2.3s4.6,1.9,5.1,4.2c0.5,0.9,0.5,0.9,0.5,0.9c0.9,0.5,0.9,0.5,0.9,0.5c1.8,0.9,3.2,2.8,3.2,5.1
	C48.9,46.8,46.6,49.1,43.8,49.1z M48.9,35.2C48,33.4,47,32,45.2,30.6c-1.8-1.4-3.7-1.9-6-1.9c-2.8,0-5.5,0.9-7.4,2.8
	c-0.9-0.5-1.4-0.5-2.3-0.5c-3.7,0-6.5,3.2-6.5,6.9c-2.3,1.4-3.7,4.2-3.7,6.9c0,4.6,3.7,8.8,8.8,8.8c15.7,0,15.7,0,15.7,0
	c5.5,0,9.7-4.6,9.7-9.7C53.5,40.3,51.6,37.1,48.9,35.2z"/>
<path class="st0" d="M19.3,25.4c-0.5,2.8,0,5.6,1.8,7.4c0-0.5,0.9-1.4,1.4-1.9c0.9-0.9,1.8-1.9,3.2-2.3c1.4-0.5,2.3-0.9,3.7-0.9
	c0.5,0,0.9,0,1.4,0c0.9-0.5,1.8-0.9,2.8-1.4c0.9-0.5,1.8-0.5,2.3-0.9c-0.5-2.8-2.8-5.1-6-6C25.3,18,20.7,20.8,19.3,25.4z"/>
</svg>
