<?xml version="1.0" encoding="utf-8"?>
<svg version="1.1" id="Layer_1" xmlns="http://www.w3.org/2000/svg" xmlns:xlink="http://www.w3.org/1999/xlink"
	 viewBox="0 0 64 64" xml:space="preserve">
<polygon class="st0" points="22.8,40.4 15.4,53.7 19,53.7 26.8,40.4 "/>
<polygon class="st0" points="30.6,40.4 22.8,53.7 26.3,53.7 34.5,40.4 "/>
<polygon class="st0" points="30.1,53.7 33.9,53.7 41.8,40.4 38,40.4 "/>
<path class="st0" d="M40.4,32.4c-16.2,0-16.2,0-16.2,0c-1.8,0-3.7-1.9-3.7-4.1c0-1.9,0.9-3.2,2.3-3.7c1.8-0.9,1.8-0.9,1.8-0.9
	c-0.5-1.9-0.5-1.9-0.5-1.9v-0.5c0-1.4,0.5-2.3,1.8-2.3c0.5,0,0.9,0.5,0.9,0.5c2.3,1.8,2.3,1.8,2.3,1.8c1.4-2.3,1.4-2.3,1.4-2.3
	c0.9-1.4,2.8-2.3,4.6-2.3c2.8,0,4.6,1.4,5.6,4.1c0.5,0.9,0.5,0.9,0.5,0.9c0.9,0.5,0.9,0.5,0.9,0.5c1.9,0.9,3.3,2.8,3.3,4.6
	C45.5,30.1,43.1,32.4,40.4,32.4z M45,18.6c-0.5-1.9-1.8-3.2-3.2-4.6c-1.8-1.4-4.2-2.3-6.5-2.3c-2.8,0-5.1,1.4-7.4,3.2
	c-0.5-0.5-1.4-0.5-1.8-0.5c-3.7,0-7,3.2-7,6.9c-2.3,1.4-3.2,4.1-3.2,6.9c0,4.6,3.7,8.8,8.3,8.8c16.2,0,16.2,0,16.2,0
	c5.1,0,9.7-4.6,9.7-10.1C50.1,23.7,48.2,20.4,45,18.6z"/>
</svg>
