<?xml version="1.0" encoding="utf-8"?>
<svg version="1.1" id="Layer_1" xmlns="http://www.w3.org/2000/svg" xmlns:xlink="http://www.w3.org/1999/xlink" x="0px" y="0px"
	 viewBox="0 0 64 64" style="enable-background:new 0 0 64 64;" xml:space="preserve">
<path class="st0" d="M22.8,43c-1-0.5-1.9,0-2.4,0.5c-0.5,1-0.5,1.9,0.5,2.4c1,0.5,1.9,0.5,2.4-0.5C23.8,44.4,23.3,43.5,22.8,43z"/>
<path class="st0" d="M20,47.7c-0.9-0.4-1.8-0.4-2.2,0.4c-0.4,0.4,0,1.8,0.9,2.2c0.4,0.4,1.3,0,1.8-0.9C20.9,49,20.9,48.2,20,47.7z"
	/>
<path class="st0" d="M30.7,42.1c-1-0.5-1.9-0.5-2.4,0.5c-0.5,1,0,1.9,1,2.4c0.5,0.5,1.4,0,1.9-1C31.7,43.5,31.7,42.6,30.7,42.1z"/>
<path class="st0" d="M28.4,46.3c-0.9-0.5-1.8,0-2.2,0.5c-0.4,1-0.4,1.9,0.4,2.4c0.9,0.5,1.8,0,2.2-0.5
	C29.3,47.7,28.8,46.8,28.4,46.3z"/>
<path class="st0" d="M25.5,50.4c-0.9,0-1.8,0-2.2,0.9c-0.4,0.5,0,1.9,0.9,2.3c0.4,0,1.3,0,1.8-0.9C26.4,52.3,26.4,50.9,25.5,50.4z"
	/>
<path class="st0" d="M38.5,40.9c-0.5-0.4-1.4,0-1.9,0.4c-0.5,0.9-0.5,1.8,0.5,2.2c1,0.4,1.9,0.4,2.4-0.4
	C39.9,42.2,39.5,41.3,38.5,40.9z"/>
<path class="st0" d="M36.2,45.4c-0.9-0.5-1.8-0.5-2.2,0.5c-0.4,1,0,1.9,0.9,2.4c0.4,0.5,1.3,0,1.8-1C37,46.8,37,45.9,36.2,45.4z"/>
<path class="st0" d="M34,49.7c-1-0.4-1.9,0-2.4,0.4c-0.5,0.9-0.5,1.8,0.5,2.2c1,0.4,1.9,0,2.4-0.4C34.9,51,34.5,50.1,34,49.7z"/>
<path class="st0" d="M39.9,32.4c-16.2,0-16.2,0-16.2,0c-2.3,0-3.7-1.9-3.7-4.1c0-1.9,0.9-3.2,2.3-3.7c1.8-0.9,1.8-0.9,1.8-0.9
	c-0.5-1.9-0.5-1.9-0.5-1.9c-0.5,0-0.5-0.5-0.5-0.5c0-1.4,0.9-2.3,2.3-2.3c0.5,0,0.9,0.5,0.9,0.5c2.3,1.8,2.3,1.8,2.3,1.8
	c1.4-2.3,1.4-2.3,1.4-2.3c0.9-1.4,2.8-2.3,4.6-2.3c2.3,0,4.6,1.4,5.6,4.1c0,0.9,0,0.9,0,0.9c1.4,0.5,1.4,0.5,1.4,0.5
	c1.8,0.9,2.8,2.8,2.8,4.6C44.6,30.1,42.7,32.4,39.9,32.4z M44.6,18.6c-0.9-1.9-1.8-3.2-3.2-4.6c-1.8-1.4-4.2-2.3-6.5-2.3
	c-2.8,0-5.6,1.4-7.4,3.2c-0.5-0.5-1.4-0.5-1.8-0.5c-3.7,0-6.9,3.2-6.9,6.9c-2.3,1.4-3.7,4.1-3.7,6.9c0,4.6,4.2,8.8,8.8,8.8
	c16.2,0,16.2,0,16.2,0c5.1,0,9.7-4.6,9.7-10.1C49.7,23.7,47.3,20.4,44.6,18.6z"/>
</svg>
