<?xml version="1.0" encoding="utf-8"?>
<svg version="1.1" id="Layer_1" xmlns="http://www.w3.org/2000/svg" xmlns:xlink="http://www.w3.org/1999/xlink" x="0px" y="0px"
	 viewBox="0 0 64px 64px" style="enable-background:new 0 0 64 64;" xml:space="preserve">
<ellipse class="st0" cx="32.9" cy="32.7" rx="11.2" ry="11.3"/>
<path class="st0" d="M22.7,22.6c0.5-0.9,0.9-1.4,1.8-1.8c-4.6-4.6-4.6-4.6-4.6-4.6c-3.7,3.2-3.7,3.2-3.7,3.2
	c5.1,5.1,5.1,5.1,5.1,5.1C21.8,23.5,22.2,23,22.7,22.6z"/>
<path class="st0" d="M44.5,24.4c5.1-5.1,5.1-5.1,5.1-5.1c-3.7-3.2-3.7-3.2-3.7-3.2c-4.7,4.6-4.7,4.6-4.7,4.6
	c0.5,0.5,1.4,0.9,1.9,1.8C43.5,23,44,23.5,44.5,24.4z"/>
<path class="st0" d="M18.3,32.9c0-0.9,0-1.8,0-2.3c-6.4,0-6.4,0-6.4,0c0,4.6,0,4.6,0,4.6c6.4,0,6.4,0,6.4,0
	C18.3,34.3,18.3,33.3,18.3,32.9z"/>
<path class="st0" d="M35,18.5c0-6.8,0-6.8,0-6.8c-4.5,0-4.5,0-4.5,0c0,6.8,0,6.8,0,6.8c0.4,0,1.3-0.5,2.2-0.5S34.1,18.5,35,18.5z"/>
<path class="st0" d="M47.1,30.6c0,0.5,0,1.4,0,2.3c0,0.5,0,1.4,0,2.3c6.4,0,6.4,0,6.4,0c0-4.6,0-4.6,0-4.6L47.1,30.6L47.1,30.6z"/>
<path class="st0" d="M21.3,41.1c-5.1,4.8-5.1,4.8-5.1,4.8c3.7,3.3,3.7,3.3,3.7,3.3c4.6-4.8,4.6-4.8,4.6-4.8c-0.9-0.5-1.4-1-1.8-1.4
	C22.2,42.5,21.8,41.6,21.3,41.1z"/>
<path class="st0" d="M43.1,43c-0.5,0.5-1.4,1-1.9,1.4c4.7,4.8,4.7,4.8,4.7,4.8c3.7-3.3,3.7-3.3,3.7-3.3c-5.1-4.8-5.1-4.8-5.1-4.8
	C44,41.6,43.5,42.5,43.1,43z"/>
<path class="st0" d="M30.6,47.3c0,6.4,0,6.4,0,6.4c4.5,0,4.5,0,4.5,0c0-6.4,0-6.4,0-6.4c-0.9,0-1.3,0-2.2,0
	C31.9,47.3,31,47.3,30.6,47.3z"/>
</svg>
